<svg width="644" height="531" viewBox="0 0 644 531" fill="none" xmlns="http://www.w3.org/2000/svg">
<path d="M220.962 517.85C226 466.543 232.046 426.534 238.312 374.331C249.644 421.356 261.086 460.609 273.746 513.12C294.23 510.72 314.951 510.21 335.545 511.599C319.587 447.07 303.628 382.542 287.661 318.013C255.617 316.281 223.774 311.112 192.921 302.637C182.459 371.095 173.748 439.809 166.804 508.681C183.861 509.173 200.872 511.353 220.962 517.85Z" fill="#592D46"/>
<path d="M238.715 375.984C238.696 375.509 238.678 375.034 238.65 374.568C239.447 369.707 240.235 364.845 241.509 359.307C249.112 359.368 256.725 359.421 264.355 360.66C265.354 397.584 264.997 434.517 263.302 471.406" fill="#4D253F"/>
<path d="M176.286 177.642C158.569 190.521 140.852 203.409 122.283 216.807C110.832 225.062 102.148 236.359 97.2929 249.283C91.2468 265.388 84.2846 282.672 81.6738 300.123C91.3109 300.15 103.458 299.684 113.187 300.466C125.801 273.362 141.777 247.709 160.676 224.21C166.108 217.449 171.834 210.803 175.727 203.128C179.62 195.471 181.572 186.503 176.286 177.642Z" fill="#F29A4E"/>
<path d="M301.696 288.641C301.366 303.384 301.65 318.427 302.575 334.102C283.722 339.297 254.82 342.067 235.289 340.37C234.355 334.269 233.411 328.176 232.669 321.31C231.424 327.728 230.169 334.137 226.862 341.442C211.618 341.724 196.347 340.651 181.305 338.269C177.403 302.391 175.754 267.305 176.478 232.64C176.871 213.176 178.026 193.844 179.94 174.591C188.927 165.623 200.332 158.722 214.009 155.179C225.057 167.329 234.126 181.14 240.951 197.747C252.347 188.375 260.014 174.933 259.996 159.206C278.574 162.59 296.254 170.476 312.707 183.883C306.569 208.376 309.491 231.893 303.427 256.869C302.511 267.384 301.943 277.942 301.696 288.641Z" fill="#F29A4E"/>
<path d="M300.962 335.262C282.109 340.458 254.82 342.067 235.28 340.379C234.345 334.277 233.402 328.185 232.66 321.319C231.414 327.737 230.159 334.146 226.852 341.451C211.608 341.733 196.337 340.66 181.295 338.277C177.393 302.4 175.744 267.313 176.468 232.649C185.72 253.397 202.484 271.111 223.435 281.459C244.55 291.868 276.97 294.813 300.092 289.802C299.753 304.545 300.037 319.587 300.962 335.262Z" fill="#F08B43"/>
<path d="M240.703 199.189C238.358 226.17 236.004 253.151 234.126 278.848C232.349 292.958 231.781 307.2 232.422 321.398" stroke="#C7632E" stroke-miterlimit="10" stroke-linecap="round" stroke-linejoin="round"/>
<path d="M236.434 194.644C226.998 183.514 221.666 169.237 221.584 154.889C234.546 158.977 248.379 160.507 262.89 159.566C260.92 175.259 252.392 186.389 240.931 197.738C239.356 196.024 239.283 198.011 236.434 194.644Z" fill="#E49175"/>
<path d="M240.924 197.747C239.055 190.055 237.984 183.136 237.095 175.259C227.027 166.767 219.864 155.786 213.479 144.639C209.228 147.575 204.913 153.351 203.896 158.239C211.115 174.398 224.536 188.807 240.924 197.747Z" fill="#FFD9AD"/>
<path d="M240.923 197.747C245.558 191.602 248.655 183.918 248.746 175.98C255.992 168.164 263.138 158.019 266.921 147.733C270.723 151.478 272.152 156.999 273.205 162.564C271.144 179.136 257.623 194.213 240.923 197.747Z" fill="#FFD9AD"/>
<path d="M214.091 126.458C212.469 125.121 210.601 123.987 208.512 123.548C206.423 123.099 204.096 123.407 202.42 124.682C200.854 125.869 200.02 127.741 199.626 129.614C198.673 134.15 200.121 139.1 203.419 142.484C206.707 145.869 211.746 147.619 216.528 147.021" fill="#E49175"/>
<path d="M273.352 126.511C274.973 125.175 276.842 124.041 278.931 123.601C281.019 123.153 283.346 123.46 285.023 124.735C286.589 125.922 287.423 127.794 287.817 129.667C288.769 134.203 287.322 139.153 284.024 142.538C280.735 145.922 275.697 147.672 270.915 147.074" fill="#E49175"/>
<path d="M255.836 165.764C248.984 169.606 240.538 169.931 233.365 166.661C228.711 164.533 224.369 161.896 220.787 158.362C214.704 152.375 211.251 143.302 214.164 135.416C211.874 127.319 209.648 119.662 209.263 111.811C208.878 103.96 210.518 95.7581 215.4 89.4371C219.926 83.5732 226.842 79.7929 234.006 77.3489C241.884 74.6587 250.651 73.4016 258.593 75.9247C269.486 79.3797 277.052 89.6569 279.049 100.497C281.046 111.336 278.161 121.121 272.747 132.585C275.852 137.623 275.77 144.111 273.37 149.491C270.97 154.871 266.481 159.214 261.378 162.423C259.61 163.513 257.778 164.674 255.836 165.764Z" fill="#F0AC83"/>
<path d="M276.09 98.0792C274.579 93.3055 271.208 90.2285 265.904 89.1383C257.668 85.7185 247.866 85.5514 239.539 88.7691C242.443 85.5427 246.364 83.2569 250.532 81.7624C254.7 80.2766 259.116 79.5469 263.348 79.3447C265.418 80.3557 266.362 82.791 268.359 83.9338C270.786 85.3229 273.938 84.3822 276.768 84.9976C277.492 88.1097 277.657 93.5956 276.09 98.0792Z" fill="#3B1D32"/>
<path d="M272.738 132.568C270.631 121.332 275.312 106.756 274.506 93.7711C273.901 83.8984 265.895 89.1293 265.895 89.1293C265.895 89.1293 266.28 80.3467 254.554 83.7929C245.274 86.5182 236.571 91.5997 231.166 99.3361C231.038 99.2482 230.919 99.1603 230.791 99.0723C228.611 97.4371 228.226 94.9228 229.096 92.8568C229.078 92.8656 229.05 92.8832 229.023 92.892C224.351 95.2657 220.467 98.158 217.169 101.534C216.482 102.228 216.051 103.125 215.896 104.075C214.237 114.361 213.321 124.014 213.789 133.807C206.039 124.189 203.428 111.917 205.315 100.136C203.666 100.919 202.429 101.701 201.202 102.475C201.174 101.094 201.275 99.7229 201.495 98.3602C202.521 92.1447 206.121 86.3248 210.93 81.9731C216.793 76.6719 224.333 73.3487 232.073 71.2036C238.935 69.3135 246.199 68.2761 253.198 69.586C260.197 70.8959 266.903 74.8081 270.365 80.9445C275.688 80.4786 280.323 81.2786 283.007 86.4391C284.372 89.0765 285.242 91.9601 285.673 94.9668C287.707 109.024 280.46 125.781 272.738 132.568Z" fill="#592D46"/>
<path d="M242.407 81.5605C238.687 83.521 235.133 86.0002 232.852 89.4288C230.956 92.2773 230.058 95.8466 230.8 99.0906C228.62 97.4554 228.235 94.941 229.105 92.8751C229.087 92.8839 229.059 92.9014 229.032 92.9102C230.388 90.3607 232.092 87.9607 234.253 85.9738C236.525 83.8639 239.329 82.2463 242.407 81.5605Z" fill="#703E55"/>
<path d="M223.911 84.7603C218.946 86.4218 214.695 89.9911 212.323 94.4923C209.941 98.9935 209.455 104.391 210.994 109.218C207.99 104.752 207.522 98.8089 209.794 93.956C212.066 89.112 217.022 85.5075 223.911 84.7603Z" fill="#703E55"/>
<path d="M285.673 94.9839C285.664 95.1949 285.646 95.4058 285.627 95.6168C285.426 91.731 283.09 88.0211 279.682 85.9111C276.274 83.7924 271.886 83.2474 267.975 84.2935C267.553 80.8033 265.41 78.1396 262.744 76.3285C260.087 74.5351 256.936 73.4977 253.766 72.812C242.663 70.4119 230.69 72.7504 220.714 77.9901C212.36 82.3946 205.7 89.9816 201.495 98.3685C202.521 92.153 206.121 86.3331 210.931 81.9814C216.794 76.6802 224.333 73.357 232.074 71.2119C238.935 69.3218 246.2 68.2844 253.198 69.5943C260.197 70.9042 266.903 74.8164 270.366 80.9528C275.688 80.4869 280.323 81.2869 283.007 86.4474C284.372 89.0848 285.243 91.9684 285.673 94.9839Z" fill="#703E55"/>
<path d="M253.923 116.523C256.186 113.736 259.996 112.048 263.633 112.62C267.27 113.191 270.449 116.198 270.705 119.723C265.933 116.602 259.85 115.398 253.923 116.523Z" fill="#592D46"/>
<path d="M235.602 116.523C233.339 113.736 229.528 112.048 225.891 112.62C222.255 113.191 219.076 116.198 218.819 119.723C223.583 116.602 229.666 115.398 235.602 116.523Z" fill="#592D46"/>
<path d="M250.396 121.939C248.536 125.552 247.922 129.737 248.674 133.702C248.985 135.337 249.516 136.999 249.123 138.616C248.692 140.436 247.016 141.913 245.092 142.177C243.168 142.44 241.125 141.473 240.182 139.847" stroke="#CC5D54" stroke-miterlimit="10" stroke-linecap="round" stroke-linejoin="round"/>
<path d="M253.923 147.742C250.643 149.298 246.75 150.01 242.957 149.729C239.165 149.448 235.5 148.182 232.624 146.168" stroke="#CC5D54" stroke-miterlimit="10" stroke-linecap="round" stroke-linejoin="round"/>
<path d="M231.635 132.075C232.925 132.075 233.971 131.072 233.971 129.834C233.971 128.595 232.925 127.592 231.635 127.592C230.345 127.592 229.299 128.595 229.299 129.834C229.299 131.072 230.345 132.075 231.635 132.075Z" fill="#2F3C49"/>
<path d="M257.102 132.075C258.392 132.075 259.438 131.072 259.438 129.834C259.438 128.595 258.392 127.592 257.102 127.592C255.811 127.592 254.766 128.595 254.766 129.834C254.766 131.072 255.811 132.075 257.102 132.075Z" fill="#2F3C49"/>
<path d="M201.111 443.572C201.349 471.599 199.893 499.635 196.741 527.504C175.406 525.323 154.071 523.134 132.735 520.954C136.986 496.681 139.359 472.1 139.826 447.493C158.66 442.201 178.521 440.284 201.111 443.572Z" fill="#3E4B78"/>
<path d="M104.263 376.169C88.7266 378.182 73.19 393.435 59 387.984C61.3635 349.487 76.3779 312.141 101.506 282.567C113.946 267.367 131.242 254.892 151.826 247.524C168.004 253.907 183.357 262.224 200.011 275.912C201.147 337.61 204.766 399.255 210.858 460.689C191.171 467.371 169.863 469.63 149.133 467.239C140.622 436.144 131.526 403.923 104.263 376.169Z" fill="#3E759B"/>
<path d="M212.167 376.881L191.4 371.061C190.374 359.957 188.688 348.344 186.865 336.643C186.187 332.37 186.013 328.036 186.279 323.719C186.352 322.524 186.462 321.328 186.6 320.132C188.001 308.167 187.791 296.809 186.013 285.67C185.986 285.67 185.949 285.661 185.922 285.653C169.671 283.156 154.555 275.885 143.095 265.177C139.971 262.267 137.122 259.094 134.585 255.7C136.93 250.469 140.228 246.452 145.422 242.891C162.076 240.781 188.597 259.762 188.908 259.762C196.017 259.788 204.784 266.47 205.581 273.257C207.449 289.239 207.55 305.442 205.709 321.82C205.104 327.218 205.159 332.66 206.002 338.014L208.796 355.711L212.167 376.881Z" fill="#F8DD6B"/>
<path d="M185.931 285.652C169.68 283.155 154.565 275.885 143.104 265.177C150.607 269.071 158.284 272.649 166.437 275.058C168.471 275.665 171.063 276.052 172.419 274.469C173.225 273.52 173.262 272.14 172.849 270.997C172.428 269.836 171.622 268.86 171.228 267.243C171.805 267.797 172.364 268.342 173.307 269.845C176.175 268.456 179.867 269.317 182.23 271.401C184.593 273.493 185.775 276.597 186.105 279.665C186.307 281.564 186.215 283.472 185.931 285.652Z" fill="#E6C75A"/>
<path d="M212.167 376.88L191.4 371.06C190.374 359.957 188.688 348.343 186.865 336.642C186.187 332.369 186.013 328.035 186.279 323.719C187.598 329.099 189.339 334.365 191.968 339.262C195.696 346.207 201.513 352.44 208.814 355.702L212.167 376.88Z" fill="#E6C75A"/>
<path d="M153.667 252.307C157.047 260.36 164.174 266.892 173.335 269.485C177.192 266.54 181.048 263.595 184.914 260.658C175.268 255.955 164.587 253.239 153.667 252.307Z" fill="#E49175"/>
<path d="M198.637 222.654C199.892 220.728 201.971 219.278 204.298 218.917C206.625 218.557 209.172 219.366 210.665 221.124C212.039 222.733 212.442 224.922 212.433 227.005C212.414 230.522 211.297 234.117 208.869 236.755C206.442 239.392 202.594 240.922 199.003 240.236" fill="#E49175"/>
<path d="M143.471 238.592C131.856 230.108 126.194 214.767 129.666 201.158C133.138 187.549 145.533 176.446 159.924 174.063C174.306 171.681 189.871 178.16 197.886 189.87C205.416 200.868 206.067 215.603 201.505 227.717C205.792 237.432 202.714 249.555 194.588 256.658C186.463 263.771 173.968 265.661 163.744 261.766C153.521 257.88 145.89 248.57 143.471 238.592Z" fill="#F0AC83"/>
<path d="M208.641 205.756C208.641 205.756 208.651 205.756 208.641 205.765C208.367 213.22 206.067 220.719 202.156 226.979C203.759 212.956 198.922 200.921 190.036 194.846C191.804 198.539 191.035 203.233 188.176 206.222C186.363 198.108 181.672 190.635 175.058 185.352C177.202 194.556 171.211 205.326 161.656 209.027C162.81 205.994 163.983 202.969 165.137 199.945C159.87 205.721 154.611 211.506 149.344 217.273C147.796 215.154 147.054 212.473 147.292 209.888C140.302 218.75 143.591 238.443 143.591 238.443L145.561 242.803C147.1 246.197 145.542 250.153 142.052 251.735C142.006 251.753 141.96 251.779 141.905 251.797C138.653 253.265 134.778 252.588 132.296 250.1C129.2 246.997 127.138 242.803 126.781 238.601C126.635 240.06 126.47 241.529 126.323 242.979C118.564 236.948 115.742 225.669 119.828 216.886C118.491 218.055 117.758 219.849 117.904 221.598C114.616 219.594 113.919 215.559 114.845 212.28C115.77 209 117.95 206.222 119.727 203.286C121.715 200.016 123.236 196.499 124.775 193C126.506 189.035 128.265 185.088 130.739 181.518C138.992 169.624 155.317 163.558 169.681 167.065C184.521 167.101 197.933 175.347 204.547 187.365C207.606 192.912 208.87 199.321 208.641 205.756Z" fill="#E8CFD5"/>
<path d="M208.642 205.756C206.819 197.844 203.695 190.248 198.198 184.199C190.778 176.032 178.127 171.496 167.757 175.804C157.635 171.768 147.118 174.089 139.24 179.179C133.569 182.854 128.98 187.777 124.784 192.991C126.516 189.026 128.274 185.078 130.748 181.509C139.002 169.614 155.326 163.548 169.69 167.056C184.531 167.091 197.942 175.338 204.556 187.355C207.606 192.912 208.871 199.321 208.642 205.756Z" fill="#FCE8EC"/>
<path d="M145.991 234.249C144.415 231.91 142.335 229.774 139.66 228.675C136.995 227.576 133.669 227.682 131.407 229.431C129.144 231.181 128.347 234.24 128.668 237.009C129.171 241.3 132.167 245.238 136.271 246.988C140.375 248.746 145.432 248.254 149.087 245.739" fill="#F0AC83"/>
<path d="M153.796 221.361C154.538 217.757 157.579 214.689 161.299 213.809C165.018 212.93 169.204 214.275 171.65 217.423C165.329 215.928 158.294 217.519 153.796 221.361Z" fill="#E8CFD5"/>
<path d="M185.758 217.036C187.104 215.146 188.534 213.273 190.375 211.91C192.216 210.539 194.534 209.712 196.751 210.17C198.968 210.618 200.965 212.57 201.093 215.19C196.128 213.352 190.357 214.055 185.758 217.036Z" fill="#E8CFD5"/>
<path d="M164.679 233.888C165.969 233.888 167.015 232.885 167.015 231.647C167.015 230.408 165.969 229.405 164.679 229.405C163.389 229.405 162.343 230.408 162.343 231.647C162.343 232.885 163.389 233.888 164.679 233.888Z" fill="#2F3C49"/>
<path d="M189.404 231.849C190.694 231.849 191.74 230.845 191.74 229.607C191.74 228.369 190.694 227.365 189.404 227.365C188.114 227.365 187.068 228.369 187.068 229.607C187.068 230.845 188.114 231.849 189.404 231.849Z" fill="#2F3C49"/>
<path d="M184.632 222.012C183.303 224.79 183.56 228.21 185.31 230.768C186.253 232.148 187.636 233.397 187.792 235.041C187.975 236.896 186.4 238.601 184.549 239.155C182.699 239.718 180.683 239.348 178.86 238.715" stroke="#CC5D54" stroke-miterlimit="10" stroke-linecap="round" stroke-linejoin="round"/>
<path d="M165.164 244.403C163.287 246.162 162.462 248.887 163.067 251.34" stroke="#CC5D54" stroke-miterlimit="10" stroke-linecap="round" stroke-linejoin="round"/>
<path d="M192.472 241.44C193.617 241.862 194.588 242.706 195.137 243.761C195.687 244.816 195.815 246.064 195.495 247.198" stroke="#CC5D54" stroke-miterlimit="10" stroke-linecap="round" stroke-linejoin="round"/>
<path d="M186.042 244.439C181.773 245.968 177.743 246.109 173.382 244.869C172.466 244.606 171.541 244.28 170.588 244.254C169.626 244.219 168.6 244.544 168.051 245.327C167.556 246.039 167.565 247.015 167.895 247.806C168.234 248.606 168.848 249.256 169.507 249.819C171.816 251.797 174.82 252.966 177.88 253.063C180.94 253.16 184.027 252.193 186.464 250.364C187.554 249.546 188.571 248.465 188.745 247.129C188.919 245.784 188.653 243.498 186.042 244.439Z" fill="white"/>
<path d="M75.1681 299.226C77.211 294.98 80.2524 291.217 83.7701 287.938C85.8221 286.021 88.9551 285.661 91.4743 286.971C94.7263 288.659 97.9692 290.567 101.295 292.993C103.814 294.83 105.362 297.652 105.582 300.677C105.994 306.409 105.563 312.193 104.29 317.811C104.134 318.497 103.896 319.262 103.227 319.552C102.66 319.798 101.963 319.561 101.524 319.147C101.075 318.734 100.827 318.163 100.589 317.609C99.1418 314.189 97.9967 310.655 96.8791 307.587C93.6728 313.626 94.7446 321.512 99.4624 326.55C100.159 327.297 100.937 327.991 101.478 328.853C102.018 329.715 102.293 330.796 101.908 331.728C101.368 333.029 99.6823 333.592 98.2441 333.372C96.8058 333.152 95.56 332.326 94.0393 331.772C90.265 331.192 86.7382 329.196 84.0724 326.391C82.8357 326.347 81.599 326.224 80.344 326.022C76.8904 325.46 74.2246 322.848 73.7666 319.517C72.7772 312.29 72.9879 303.754 75.1681 299.226Z" fill="#F0AC83"/>
<path d="M92.8774 330.506C90.9353 328.871 89.4421 326.778 88.4253 323.719C87.1886 319.71 86.5015 315.569 86.3916 311.429" stroke="#CC5D54" stroke-miterlimit="10" stroke-linecap="round" stroke-linejoin="round"/>
<path d="M82.452 325.442C79.4748 321.477 77.6976 316.695 77.377 311.815" stroke="#CC5D54" stroke-miterlimit="10" stroke-linecap="round" stroke-linejoin="round"/>
<path d="M539.445 506.818C521.334 507.398 503.224 507.978 485.113 508.558C480.166 471.423 477.912 434.957 475.732 398.516C475.668 397.558 475.622 396.618 475.558 395.659C467.918 432.952 455.414 474.237 447.581 512.497C443.358 513.165 439.437 513.605 435.727 513.877C419.467 515.099 407.329 513.112 392.626 511.943C404.581 449.99 415.931 386.534 431.174 319.324C464.492 317.776 497.81 316.238 538.163 317.328C538.602 380.494 539.024 443.66 539.445 506.818Z" fill="#495885"/>
<path d="M475.849 395.8C475.822 396.706 475.776 397.611 475.739 398.526C475.675 397.567 475.629 396.627 475.565 395.668C467.925 432.961 455.421 474.246 447.588 512.506C443.365 513.174 439.444 513.614 435.734 513.886C440.672 463.679 443.402 413.278 443.961 362.85C453.424 366.296 463.611 369.338 473.889 372.046C474.155 380.099 474.823 387.976 475.849 395.8Z" fill="#3E4A7A"/>
<path d="M430.312 335.693C458.757 336.318 487.292 332.994 516.085 324.572C522.506 280.053 520.069 234.373 508.738 187.523C488.373 181.686 466.241 181.677 445.867 187.506C437.54 236.228 432.603 285.477 430.312 335.693Z" fill="#CAE4EA"/>
<path d="M548.313 345.803C532.584 355.553 517.899 360.37 502.793 362.269C499.504 340.757 496.839 319.464 494.75 298.268C492.698 277.336 491.205 256.535 490.252 235.708C489.904 228.025 490.371 220.332 491.498 212.719C493.11 201.791 493.715 190.767 493.651 179.734C488.484 173.316 481.971 168.472 477.399 164.34C479.699 161.878 479.003 163.267 481.311 160.806C494.686 169.703 509.691 178.221 524.522 186.468C533.262 191.321 540.05 198.679 544.044 207.33C545.94 211.435 547.213 215.822 547.763 220.385C552.875 262.592 552.866 304.422 548.313 345.803Z" fill="#3E759B"/>
<path d="M548.313 345.803C532.584 355.553 517.899 360.371 502.793 362.27C499.504 340.757 496.839 319.464 494.75 298.268C501.355 293.196 506.293 285.6 509.041 277.784C513.539 264.975 512.339 247.982 513.346 234.496C514.629 217.37 519.484 210.302 535.891 203.4C538.731 204.666 541.442 205.985 544.035 207.339C545.931 211.445 547.204 215.831 547.754 220.394C552.875 262.593 552.866 304.422 548.313 345.803Z" fill="#356994"/>
<path d="M536.945 351.421C547.296 351.5 557.62 353.769 566.974 358.032L567.111 357.988C572.543 356.221 576.345 351.509 576.785 346.015C578.086 329.654 579.267 313.697 580.449 297.767C580.586 295.868 580.541 293.943 580.275 292.053C576.602 265.811 569.758 242.03 559.856 219.638C558.133 215.735 555.688 212.157 552.683 209.053C543.87 199.954 535.506 192.948 526.117 187.822C526.062 187.901 525.998 187.981 525.943 188.06C516.599 200.992 513.108 216.983 515.655 232.526C518.522 250.048 523.084 267.666 529.534 286.128C530.587 289.152 531.247 292.299 531.439 295.482C532.264 308.976 531.952 322.524 530.157 335.931C529.552 340.45 530.972 345.004 534.077 348.45C535.131 349.619 536.111 350.621 536.945 351.421Z" fill="#3E759B"/>
<path d="M563.144 371.738C565.443 366.656 567.248 361.364 568.429 356.063C569.217 352.537 567.962 348.88 565.15 346.498C561.998 343.825 558.069 341.988 553.919 341.328C549.631 340.651 545.152 341.231 541.378 342.893C538.355 344.221 536.248 346.928 535.643 350.067C534.782 354.515 534.562 359.078 535.002 363.579C544.602 363.06 554.368 365.346 563.144 371.738Z" fill="#518FB0"/>
<path d="M490.59 221.616C490.59 207.031 492.312 192.384 493.485 179.936C489.573 176.05 485.671 172.164 482.373 167.979C483.408 164.753 484.453 161.527 485.469 157.14C490.37 157.562 495.189 158.845 499.98 161.43C503.507 163.338 506.108 166.459 507.309 170.168C508.646 174.309 509.47 178.626 509.828 183.057C510.158 187.171 509.168 191.294 507.052 194.89C501.629 204.103 496.187 213.211 490.59 221.616Z" fill="#518FB0"/>
<path d="M446.675 301.196C443.853 320.774 439.227 340.107 431.715 360.133L410.581 349.162C409.83 345.786 409.106 342.401 408.41 338.999C403.711 316.132 400.394 292.95 398.425 269.652C397.371 257.142 396.694 244.597 396.4 232.043C402.053 224.676 407.329 217.317 412.148 209.765C417.177 201.871 423.983 195.119 432.265 190.389C438.925 186.591 445.969 183.497 453.261 181.123C448.589 219.805 445.154 259.806 446.675 301.196Z" fill="#3E759B"/>
<path d="M427.171 213.985C425.174 237.37 423.25 261.687 421.574 285.819C417.186 303.543 412.798 321.284 408.41 339.007C403.711 316.141 400.394 292.958 398.425 269.661C408.007 251.111 417.589 232.543 427.171 213.985Z" fill="#356994"/>
<path d="M454.386 177.413C452.023 192.095 450.209 204.402 448.771 224.623C446.014 216.455 442.624 207.075 439.711 199.022C437.86 193.914 437.357 188.455 438.41 183.154C439.372 178.31 440.609 173.51 442.129 168.789C446.737 169.378 455.651 169.553 454.386 177.413Z" fill="#518FB0"/>
<path d="M493.732 179.716C493.457 182.951 492.587 189.413 492.587 189.413C492.587 189.413 486.367 200.596 481.026 204.156C475.685 207.717 468.632 209.202 462.503 207.119C456.365 205.035 451.657 199.004 452.234 192.798C452.234 192.428 452.243 192.077 452.252 191.716C452.298 190.433 452.463 189.246 452.619 188.042C451.712 182.635 450.567 177.017 449.431 171.417C462.375 168.841 474.659 163.241 486.257 156.551C486.706 159.338 487.283 162.081 488.007 164.78C489.381 169.922 491.259 174.898 493.732 179.716Z" fill="#F0AC83"/>
<path d="M488.007 164.779C487.201 168.427 485.982 171.988 484.26 175.329C480.66 182.283 474.641 188.296 467.02 190.925C462.32 192.542 457.126 192.815 452.271 191.725C452.317 190.441 452.481 189.254 452.637 188.05C451.73 182.643 450.585 177.025 449.449 171.425C462.393 168.849 474.678 163.249 486.275 156.559C486.706 159.337 487.283 162.08 488.007 164.779Z" fill="#E49175"/>
<path d="M424.183 154.81C421.728 154.371 414.629 154.168 413.016 158.336C412.137 160.621 411.688 163.127 412.119 165.597C412.76 169.316 414.647 172.912 417.615 175.294C420.574 177.677 424.641 178.714 428.186 177.659C431.732 176.604 434.562 173.343 434.782 169.597" fill="#E49175"/>
<path d="M491.644 144.858C492.496 135.68 493.348 126.396 491.928 117.271C490.499 108.154 486.56 99.0727 479.222 92.9539C473.213 87.9428 465.252 85.2439 457.236 84.7076C449.221 84.1713 441.159 85.7098 433.648 88.4C423.708 91.9605 414.19 98.009 409.665 107.064C405.863 114.677 406.028 123.636 408.52 131.715C411.002 139.786 415.647 147.118 420.932 154.977C420.419 159.698 422.38 164.446 425.476 168.191C428.582 171.936 432.75 174.767 437.092 177.193C443.44 180.745 450.531 183.576 457.924 183.523C467.689 183.453 476.914 178.186 482.767 170.837C488.612 163.478 490.774 154.239 491.644 144.858Z" fill="#F0AC83"/>
<path d="M500.447 136.418C498.148 136.831 496.014 137.095 493.87 137.341C489.161 134.774 485.277 131.723 481.888 128.233C482.153 116.365 477.646 104.461 469.658 95.6348C467.414 93.1556 464.235 91.5907 460.846 91.1951C452.299 90.2105 443.504 91.1687 435.406 93.982C427.042 96.9095 419.43 101.824 413.375 108.479C411.378 110.677 410.086 113.411 409.774 116.312C409.142 122.396 410.095 128.585 412.513 133.974C413.823 141.113 416.553 148.014 420.511 154.194C410.7 144.77 404.315 131.741 402.217 119.398C401.246 113.631 402.208 107.828 404.782 102.721C406.513 99.2744 408.987 96.1535 412.083 93.5688C419.906 87.0632 429.131 81.9817 438.127 79.7927C446.527 77.7355 456.164 77.208 465.334 77.4014C477.884 77.6827 489.28 84.8213 494.209 95.9073C495.299 98.3513 496.206 100.874 496.948 103.433C497.058 103.837 497.168 104.242 497.278 104.646C500.017 114.976 500.246 125.754 500.447 136.418Z" fill="#E8CFD5"/>
<path d="M496.948 103.433C492.285 97.5781 485.918 92.8308 478.874 89.8241C465.801 84.2328 450.75 84.0658 436.771 87.0021C428.306 88.778 420.025 91.6879 412.816 96.3034C409.921 98.1672 407.191 100.321 404.772 102.712C406.504 99.2661 408.977 96.1452 412.074 93.5605C419.897 87.0549 429.122 81.9734 438.118 79.7844C446.518 77.7272 456.155 77.1997 465.325 77.3931C477.875 77.6744 489.271 84.813 494.2 95.899C495.299 98.3518 496.206 100.875 496.948 103.433Z" fill="#FCE8EC"/>
<path d="M488.675 137.28C489.783 134.775 491.624 132.533 494.079 131.258C496.534 129.983 499.622 129.79 502.068 131.073C504.229 132.208 505.704 134.344 506.538 136.612C508.379 141.632 507.161 147.707 503.249 151.399C499.338 155.092 492.861 155.971 488.271 153.149" fill="#F0AC83"/>
<path d="M452.17 122.44C453.947 118.3 458.289 115.284 462.952 114.977C467.615 114.669 472.351 117.078 474.696 120.946C467.34 118.933 459.242 119.495 452.17 122.44Z" fill="#E8CFD5"/>
<path d="M434.783 129.701C432.135 128.356 429.094 127.592 426.117 127.908C423.13 128.225 420.226 129.71 418.587 132.119C416.947 134.528 416.764 137.886 418.44 140.278C420.657 134.519 426.611 130.264 434.783 129.701Z" fill="#E8CFD5"/>
<path d="M463.885 139.17C465.175 139.17 466.221 138.166 466.221 136.928C466.221 135.69 465.175 134.687 463.885 134.687C462.595 134.687 461.549 135.69 461.549 136.928C461.549 138.166 462.595 139.17 463.885 139.17Z" fill="#2F3C49"/>
<path d="M436.121 149.948C437.411 149.948 438.457 148.945 438.457 147.707C438.457 146.469 437.411 145.465 436.121 145.465C434.831 145.465 433.785 146.469 433.785 147.707C433.785 148.945 434.831 149.948 436.121 149.948Z" fill="#2F3C49"/>
<path d="M441.149 138.071C442.835 140.99 443.44 144.471 442.844 147.768C442.633 148.919 442.285 150.097 442.597 151.232C443.165 153.306 445.693 154.265 447.919 154.423C451.638 154.687 455.816 153.21 457.318 149.93" stroke="#CC5D54" stroke-miterlimit="10" stroke-linecap="round" stroke-linejoin="round"/>
<path d="M447.277 167.523C452.142 168.674 457.437 168.094 461.898 165.905C466.359 163.716 469.959 159.945 471.828 155.479C472.25 154.476 472.57 153.281 471.966 152.375C471.233 151.267 469.483 151.223 468.301 151.874C467.12 152.525 466.323 153.65 465.443 154.643C461.394 159.224 455.128 161.351 449.055 162.837C448.239 163.039 447.397 163.233 446.691 163.681C445.986 164.129 445.436 164.885 445.491 165.694C445.564 166.512 446.389 167.312 447.277 167.523Z" fill="white"/>
<path d="M469.521 147.601C473.991 148.058 478.205 150.467 480.752 154.028" stroke="#CC5D54" stroke-miterlimit="10" stroke-linecap="round" stroke-linejoin="round"/>
<path d="M479.387 149.175C481.036 150.247 482.336 151.821 483.042 153.614" stroke="#CC5D54" stroke-miterlimit="10" stroke-linecap="round" stroke-linejoin="round"/>
<path d="M440.71 159.874C439.446 163.619 439.894 167.865 441.919 171.294" stroke="#CC5D54" stroke-miterlimit="10" stroke-linecap="round" stroke-linejoin="round"/>
<path d="M438.273 165.457C438.126 167.646 438.511 169.87 439.39 171.892" stroke="#CC5D54" stroke-miterlimit="10" stroke-linecap="round" stroke-linejoin="round"/>
<path d="M417.44 119.565C427.893 109.789 442.376 104.084 456.969 103.996" stroke="#CC5D54" stroke-miterlimit="10" stroke-linecap="round" stroke-linejoin="round"/>
<path d="M428.141 118.58C434.058 114.686 441.021 112.259 448.166 111.591" stroke="#CC5D54" stroke-miterlimit="10" stroke-linecap="round" stroke-linejoin="round"/>
<path d="M321.244 131.802C320.923 143.011 309.793 151.864 309.298 163.073C308.822 173.896 318.377 183.021 319.375 193.817C330.835 192.823 342.341 191.83 353.838 192.34C365.335 192.85 376.905 194.916 387.238 199.769C391.901 195.944 393.577 189.588 393.073 183.724C392.57 177.861 390.197 172.322 387.934 166.854C385.708 161.473 383.546 155.996 382.841 150.247C382.136 144.497 383.024 138.378 386.469 133.622C365.261 132.69 344.063 131.75 321.244 131.802Z" fill="#522230"/>
<path d="M291.499 515.301C287.212 465.278 284.583 415.131 283.63 364.95C283.42 353.926 285.169 342.937 288.879 332.501C291.316 325.653 293.863 318.848 296.629 311.877C328.967 309.793 361.295 307.709 396.71 305.828C402.216 318.813 406.274 332.361 408.72 346.33C410.598 357.082 410.717 368.062 409.087 378.849C402.628 421.567 395.126 464.144 386.597 506.527C355.139 507.74 323.745 510.492 291.499 515.301Z" fill="#495885"/>
<path d="M331.678 517.622C335.068 469.515 336.515 421.277 336.002 373.056C322.856 369.24 312.532 364.88 302.181 359.227C307.732 367.429 312.633 376.036 317.03 385.065C319.843 390.841 321.592 397.056 322.179 403.404C325.76 442.402 328.078 481.507 329.132 520.646C330.02 520.452 331.486 520.356 331.678 517.622Z" fill="#3E4A7A"/>
<path d="M339.757 366.603C347.424 360.238 357.071 356.097 367.12 354.858C358.72 358.682 350.319 362.506 339.757 366.603Z" fill="#3E4A7A"/>
<path d="M339.776 369.97C350.714 364.493 363.585 362.664 375.705 364.871C364.501 366.55 353.307 368.238 339.776 369.97Z" fill="#3E4A7A"/>
<path d="M404.488 263.656C400.824 289.845 390.83 314.039 385.013 337.407C350.064 340.457 317.571 340.712 285.151 339.314C288.046 328.527 290.446 318.47 292.352 308.703C293.414 303.27 294.321 297.925 295.063 292.588C295.512 289.344 295.301 286.056 294.45 282.9C294.285 282.276 294.101 281.643 293.872 281.028C293.057 278.751 292.315 276.518 291.619 274.329C289.942 268.992 289.274 263.462 289.576 257.994C289.915 251.541 291.61 245.141 294.578 239.207C302.099 224.103 310.6 210.081 320.173 196.771C335.352 194.028 350.98 190.969 366.609 187.909C374.762 188.595 383.171 191.725 389.749 196.999C396.317 202.292 400.998 209.677 402.867 217.712C406.604 233.783 406.54 249.036 404.488 263.656Z" fill="#E8CFD5"/>
<path d="M404.488 263.656C400.824 289.845 390.83 314.039 385.013 337.407C350.064 340.458 317.571 340.712 285.151 339.315C288.046 328.528 290.446 318.47 292.352 308.703C313.238 310.681 334.803 305.283 352.254 294.083C362.45 287.533 368.642 276.597 369.045 264.825C369.732 245.176 376.484 226.627 388.026 211.338C398.341 229.809 403.078 247.075 404.488 263.656Z" fill="#E3BFC8"/>
<path d="M383.545 196.349C383.197 191.145 381.988 186.002 380.028 181.079C378.892 178.23 376.226 176.217 373.093 175.733C363.685 174.283 354.213 173.087 344.722 173.615C334.893 174.16 324.926 176.709 316.626 182.538C314.345 184.138 312.999 186.679 312.971 189.387C312.934 192.332 313.42 195.242 314.309 197.87C312.376 201.598 311.441 205.8 312 210.873C323.414 215.268 336.12 216.526 348.24 214.468C360.332 212.411 371.82 207.04 383.545 196.349Z" fill="#F2DFE2"/>
<path d="M337.872 176.367C333.136 177.035 327.016 179.611 323.26 182.749C320.247 185.272 321.685 190.064 325.642 190.644C327.859 190.969 330.305 190.899 332.238 190.714C336.443 190.319 340.666 189.22 344.587 187.69C342.8 184.288 341.032 180.885 337.872 176.367Z" fill="#C493A2"/>
<path d="M334.573 183.576C334.711 178.028 334.5 172.683 333.776 167.408C343.285 168.138 352.556 168.63 361.799 168.665C363.595 168.674 365.39 168.657 367.176 168.63C367.204 169.158 367.241 169.694 367.268 170.221C367.36 171.83 367.451 173.457 367.543 175.066C367.616 176.437 367.689 177.8 367.772 179.171C357.072 184.138 346.088 189.193 334.244 190.433C334.408 188.103 334.518 185.826 334.573 183.576Z" fill="#FCC7A2"/>
<path d="M367.543 175.066C362.88 178.345 357.31 180.472 351.64 181.703C346.052 182.916 340.317 183.356 334.573 183.576C334.711 178.028 334.5 172.683 333.776 167.408C343.285 168.138 352.556 168.63 361.799 168.665C363.595 169.131 365.418 169.65 367.268 170.221C367.36 171.83 367.451 173.457 367.543 175.066Z" fill="#F7A988"/>
<path d="M378.435 350.225C375.119 354.322 372.059 358.612 369.32 362.726C367.625 365.258 366.636 368.168 366.434 371.166C366.159 375.193 366.077 379.228 366.169 383.263C366.196 384.406 366.398 385.777 367.488 386.226C368.211 386.516 369.082 386.243 369.668 385.734C370.245 385.224 370.602 384.52 370.923 383.835C372.206 381.109 373.259 378.296 374.303 375.237C375.842 378.287 376.694 381.654 376.612 385.145C376.31 389.443 373.296 393.03 371.042 396.749C370.52 397.602 370.034 398.499 369.888 399.474C369.741 400.45 370.016 401.54 370.804 402.173C371.592 402.806 372.948 402.798 374.093 402.332C376.493 404.16 380.45 403.615 383.107 400.987C386.212 401.831 389.84 400.222 391.159 397.356C394.008 397.382 396.72 396.011 398.818 394.156C399.871 393.224 400.796 392.169 401.667 391.035C403.315 388.89 404.076 386.235 403.883 383.571L402.738 367.518C402.628 365.909 402.482 364.212 401.529 362.885C400.741 361.777 399.486 361.065 398.268 360.388C391.956 356.871 385.635 353.346 378.435 350.225Z" fill="#FCC7A2"/>
<path d="M375.091 401.645C379.323 398.445 382.676 394.181 384.728 389.399" stroke="#CC5D54" stroke-miterlimit="10" stroke-linecap="round" stroke-linejoin="round"/>
<path d="M384.526 400.335C388.145 396.265 390.976 391.561 392.844 386.533" stroke="#CC5D54" stroke-miterlimit="10" stroke-linecap="round" stroke-linejoin="round"/>
<path d="M392.368 396.186C394.814 393.601 396.701 390.533 397.883 387.236" stroke="#CC5D54" stroke-miterlimit="10" stroke-linecap="round" stroke-linejoin="round"/>
<path d="M372.133 352.176C380.964 358.585 391.499 362.814 402.455 364.352C412.825 341.627 419.796 317.354 423.479 292.623C423.781 290.575 423.983 288.527 424.047 286.461C424.862 261.036 414.327 216.578 390.619 193.826C388.201 196.489 368.175 237.95 375.541 271.04C377.07 277.907 378.738 285.344 380.542 293.968C381.367 297.916 381.44 301.986 380.781 305.96C378.28 321.204 375.293 336.44 372.133 352.176Z" fill="#E8CFD5"/>
<path d="M382.503 154.529C393.789 143.698 395.135 124.304 389.611 109.218C388.017 104.866 385.801 100.637 382.384 97.4021C377.51 92.7954 370.566 90.6151 363.732 90.281C350.788 89.6481 337.688 95.4943 329.847 105.393C322.005 115.301 319.66 128.981 322.61 141.702C318.442 152.023 323.498 164.094 332.384 171.162C341.27 178.221 353.967 179.742 364.41 176.56C370.145 174.801 383.831 169.421 382.503 154.529Z" fill="#FCC7A2"/>
<path d="M394.768 112.725C399.935 121.701 398.378 132.963 396.179 143.109C393.98 153.254 391.342 164.006 394.732 173.808C396.756 179.654 400.842 184.797 401.675 190.934C402.399 196.182 400.613 201.466 398.35 206.239C396.078 211.022 393.284 215.576 391.727 220.64C390.17 225.704 390.023 231.55 392.89 235.99C382.96 233.115 376.135 221.958 378.022 211.673C379.506 203.567 385.543 196.754 386.414 188.551C387.192 181.263 383.015 174.485 382.062 167.223C380.899 158.353 384.233 148.805 385.498 139.961C387.357 126.941 381.833 117.86 377.638 109.376C379.992 107.846 389.785 111.275 394.768 112.725Z" fill="#8B3549"/>
<path d="M328.509 112.224C329.462 127.02 324.808 142.071 317.223 154.941C314.905 158.871 312.13 162.959 312.441 167.478C312.698 171.285 315.107 174.573 316.618 178.098C318.524 182.52 318.973 187.777 316.646 192.006C314.108 196.621 308.557 199.655 307.595 204.806C306.633 209.958 310.783 215.101 309.665 220.218C308.868 223.866 305.442 226.574 301.741 227.602C298.04 228.631 294.083 228.253 290.281 227.655C294.33 224.974 297.839 220.068 297.619 215.33C297.298 208.393 293.414 204.543 292.672 199.848C291.93 195.153 292.773 191.224 295.494 187.276C297.326 184.621 300.202 182.722 301.778 179.909C303.802 176.305 303.308 171.883 302.364 167.882C301.421 163.882 300.065 159.838 300.541 155.759C301.292 149.324 306.34 144.304 310.581 139.302C314.823 134.299 318.652 127.759 316.875 121.552C319.834 118.923 323.874 116.303 328.509 112.224Z" fill="#8B3549"/>
<path d="M398.89 134.572C398.542 138.221 398.102 141.878 397.754 145.544C397.644 146.713 397.095 147.812 396.142 148.542C395.721 148.876 395.281 149.157 394.878 149.35C392.093 140.849 388.85 132.365 383.555 125.06C378.242 117.745 370.611 111.653 361.579 109.666C352.885 107.75 343.587 109.789 335.8 113.939C327.995 118.088 321.519 124.216 315.821 131.091C315.812 131.091 315.811 131.082 315.802 131.073C314.941 129.658 314.676 127.952 315.097 126.352C315.674 124.216 316.297 122.106 317.012 120.014C319.384 112.901 322.618 106.079 327.07 99.978C333.217 91.5646 341.828 84.6018 352.006 81.4194C362.174 78.2369 373.936 79.1424 382.795 84.9007C392.459 91.169 397.663 102.352 399.101 113.455C399.99 120.471 399.577 127.513 398.89 134.572Z" fill="#F8DD6B"/>
<path d="M398.89 134.572C398.542 138.221 398.102 141.878 397.754 145.544C397.644 146.713 397.095 147.812 396.142 148.542C395.721 148.876 395.281 149.157 394.878 149.351C392.093 140.849 388.85 132.366 383.555 125.06C378.242 117.746 370.611 111.653 361.579 109.666C352.885 107.75 343.587 109.789 335.8 113.939C327.995 118.088 321.519 124.216 315.821 131.091C315.812 131.091 315.811 131.082 315.802 131.073C314.941 129.658 314.676 127.952 315.097 126.352C315.674 124.216 316.297 122.106 317.012 120.014C320.483 115.011 324.661 110.334 329.617 106.457C338.026 99.8638 348.827 95.7143 359.646 96.4967C371.142 97.3143 381.769 103.714 388.758 112.506C393.87 118.968 397.141 126.607 398.89 134.572Z" fill="#FFF6C2"/>
<path d="M367.167 129.368C369.961 126.739 374.551 126.088 378.013 127.829C381.476 129.57 383.537 133.561 382.887 137.254C381.421 134.528 379.012 132.278 376.145 130.941C373.277 129.596 369.943 129.174 367.167 129.368Z" fill="#8B3549"/>
<path d="M349.651 124.955C347.773 120.911 343.44 118.326 339.217 118.739C335.003 119.152 331.174 122.519 330.011 126.862C334.719 122.045 342.35 120.84 349.651 124.955Z" fill="#8B3549"/>
<path d="M367.973 147.179C369.263 147.179 370.309 146.175 370.309 144.937C370.309 143.699 369.263 142.695 367.973 142.695C366.683 142.695 365.637 143.699 365.637 144.937C365.637 146.175 366.683 147.179 367.973 147.179Z" fill="#2F3C49"/>
<path d="M342.735 142.212C344.026 142.212 345.071 141.208 345.071 139.97C345.071 138.732 344.026 137.729 342.735 137.729C341.445 137.729 340.399 138.732 340.399 139.97C340.399 141.208 341.445 142.212 342.735 142.212Z" fill="#2F3C49"/>
<path d="M360.462 138.282C359.252 140.673 358.538 143.302 358.391 145.957C358.327 147.152 358.345 148.409 357.741 149.456C356.999 150.713 355.332 151.39 353.875 151.012" stroke="#CC5D54" stroke-miterlimit="10" stroke-linecap="round" stroke-linejoin="round"/>
<path d="M363.21 158.309C356.349 158.617 348.168 156.586 342.314 153.096C341.572 156.516 342.754 160.269 345.337 162.705C347.921 165.14 351.823 166.177 355.323 165.368C358.822 164.551 363.045 162.204 363.21 158.309Z" fill="white"/>
<path d="M479.543 487.502C472.013 486.641 465.298 483.704 458.418 480.636C463.869 449.893 468.916 429.084 471.096 395.623C471.417 390.683 474 386.111 477.28 382.287C480.285 378.779 483.28 375.86 486.276 373.671C487.861 378.19 490.123 382.41 493.44 386.551C490.343 416.723 486.578 447.818 479.543 487.502Z" fill="#F06580"/>
<path d="M485.001 462.799C482.693 466.94 479.596 470.668 475.282 474.641C473.514 485.754 472.753 497.007 474.054 507.512C501.472 509.904 529.092 510.238 556.583 508.11C557.866 494.589 557.133 480.892 554.412 467.564C532.014 465.665 509.616 463.758 485.001 462.799Z" fill="#592D46"/>
<path d="M555.447 483.02C537.593 487.503 516.817 490.097 498.486 490.053L496.599 481.631C496.15 484.418 495.243 486.554 494.144 489.569C487.346 490.317 476.143 486.035 472.14 483.811C472.781 477.349 473.56 470.677 474.256 464.03C475.08 456.144 475.813 448.303 476.106 440.874C476.106 433.902 476.271 413.744 476.546 396.108C476.729 384.539 483.215 373.936 493.603 368.055C497.002 366.121 500.529 364.371 504.248 362.727C514.957 357.98 527.608 359.439 536.86 366.472C538.931 368.046 540.992 369.725 543.071 371.51C549.346 376.916 553.359 384.328 554.403 392.328C554.467 392.802 554.513 393.286 554.55 393.77C557.096 423.818 557.417 453.929 555.447 483.02Z" fill="#F47184"/>
<path d="M555.447 483.019C537.593 487.503 516.817 490.096 498.486 490.053L496.599 481.63C496.15 484.417 495.243 486.554 494.144 489.569C487.346 490.316 476.143 486.035 472.14 483.811C472.781 477.349 473.56 470.676 474.256 464.03C483.737 467.986 495.408 469.683 504.569 467.353C505.054 467.23 505.54 467.089 506.025 466.949C521.278 462.404 530.649 447.634 528.533 432.443C527.498 425.049 526.82 418.622 527.15 410.86C527.69 398.323 532.701 387.211 538.463 376.547C544.656 381.945 549.896 387.176 554.412 392.327C554.476 392.802 554.522 393.286 554.559 393.769C557.096 423.818 557.417 453.929 555.447 483.019Z" fill="#F06580"/>
<path d="M504.092 376.573C503.772 377.645 503.451 378.718 503.094 379.852C500.62 387.685 499.338 395.826 499.301 404.002C499.182 431.554 498.642 453.251 496.91 480.54" stroke="#C25166" stroke-miterlimit="10" stroke-linecap="round"/>
<path d="M524.118 418.428C524.375 414.569 524.466 410.692 524.393 406.824C516.826 407.061 510.615 406.833 504.459 406.402C504.074 410.384 504.166 414.411 504.771 418.648C505.055 420.618 506.09 422.42 507.665 423.721C509.534 425.268 511.614 426.719 514.051 428.108C516.845 427.018 519.437 425.479 521.599 423.571C523.092 422.235 523.99 420.38 524.118 418.428Z" fill="#FF9CA5"/>
<path d="M523.477 366.023C520.28 366.138 515.324 366.023 512.127 366.138C507.592 370.146 507.345 373.188 505.018 375.738C503.131 372.731 501.849 369.355 501.143 365.883C499.925 365.25 499.201 364.836 498.478 364.432C498.496 364.247 498.514 364.063 498.523 363.878C498.908 360.133 499 356.291 498.798 352.476C498.789 352.089 498.761 351.711 498.734 351.333C506.063 350.849 513.629 350.419 521.187 349.979C521.196 350.515 521.205 351.078 521.233 351.658C521.279 352.678 521.352 353.759 521.462 354.885C521.81 358.278 522.451 362.067 523.477 366.023Z" fill="#FCC7A2"/>
<path d="M498.531 363.887C498.916 360.142 499.008 356.301 498.806 352.485C502.315 353.294 506.006 353.496 509.625 353.303C513.546 353.092 517.412 352.441 521.25 351.676C521.296 352.696 521.369 353.777 521.479 354.903C515.149 360.204 506.932 363.422 498.531 363.887Z" fill="#F7A988"/>
<path d="M482.409 333.548C481.521 330.814 479.725 328.265 477.115 326.893C474.495 325.522 471.014 325.54 468.705 327.351C466.9 328.757 466.012 331.017 465.755 333.232C465.242 337.724 467.267 342.516 471.151 345.065C475.035 347.615 480.687 347.571 484.278 344.661" fill="#F7A988"/>
<path d="M479.121 333.442C476.29 338.401 477.436 344.862 480.944 349.408C484.453 353.953 489.94 356.784 495.601 358.34C504.496 360.792 514.445 360.318 522.543 356.036C530.65 351.755 536.568 343.421 536.302 334.04C539.985 328.291 542.587 321.855 543.439 315.156C544.291 308.457 543.338 301.494 540.296 295.411C534.901 284.597 522.983 277.345 510.533 276.237C502.765 275.551 494.667 277.142 488.199 281.336C480.046 286.611 475.017 295.683 473.725 305.037C472.434 314.409 474.605 323.992 479.121 333.442Z" fill="#FCC7A2"/>
<path d="M548.514 331.174C548.514 331.174 540.361 334.058 537.026 335.122C537.603 325.777 532.18 317.521 530.449 311.491C525.282 309.187 523.23 306.163 522.232 301.917C521.224 297.662 521.737 293.231 522.259 288.897C519.886 296.633 512.576 303.042 504.093 304.616C500.392 306.752 495.986 306.989 491.827 307.394C487.668 307.798 483.179 308.616 480.385 311.605C480.413 304.027 483.546 296.501 488.951 290.989C484.288 295.473 481.201 299.886 479.662 305.108C478.416 309.345 478.187 314.154 475.475 317.697C475.493 322.304 476.629 327.086 478.535 331.561C473.24 329.082 469.347 324.766 467.377 319.728C465.417 314.699 465.389 308.985 467.304 303.939C465.059 305.873 463.96 308.959 464.51 311.789C461.89 306.734 461.624 300.616 463.658 295.314C464.134 294.092 464.711 292.906 465.426 291.78C469.209 285.846 475.75 282.18 481.494 277.934C486.266 274.391 490.746 270.25 496.38 268.175C501.638 266.241 507.574 266.303 512.943 267.894C518.32 269.477 523.157 272.536 526.876 276.782C529.963 275.138 533.966 275.701 536.925 277.556C539.884 279.411 541.909 282.365 543.32 285.468C544.73 288.571 545.582 291.886 546.718 295.086C548.77 300.862 551.381 306.444 553.131 312.299C553.305 312.88 553.451 313.451 553.57 313.996V314.005C556.163 325.478 548.514 331.174 548.514 331.174Z" fill="#592D46"/>
<path d="M553.13 312.325C553.304 312.905 553.45 313.476 553.569 314.021C551.508 310.373 548.861 307.024 546.818 303.349C544.848 299.788 543.465 295.946 541.633 292.316C539.792 288.685 537.392 285.177 533.901 282.918C530.411 280.667 525.666 279.876 521.947 281.775C520.06 276.966 514.7 273.968 509.36 273.564C504.019 273.15 498.733 274.935 494.015 277.361C489.289 279.797 484.965 282.874 480.284 285.37C476.17 287.568 471.773 289.309 467.898 291.867C466.378 292.869 464.93 294.021 463.666 295.322C464.142 294.1 464.719 292.913 465.434 291.788C469.217 285.854 475.758 282.188 481.502 277.942C486.275 274.399 490.754 270.258 496.388 268.183C501.646 266.249 507.583 266.311 512.951 267.902C518.328 269.484 523.165 272.544 526.884 276.79C529.971 275.146 533.975 275.709 536.934 277.564C539.893 279.419 541.917 282.372 543.328 285.476C544.739 288.579 545.59 291.894 546.726 295.094C548.769 300.896 551.38 306.47 553.13 312.325Z" fill="#703E55"/>
<path d="M533.655 333.548C534.543 330.814 536.339 328.265 538.95 326.893C541.57 325.522 545.051 325.54 547.359 327.351C549.164 328.757 550.053 331.017 550.309 333.232C550.822 337.724 548.798 342.516 544.913 345.065C541.029 347.615 535.377 347.571 531.786 344.661" fill="#FCC7A2"/>
<path d="M516.964 334.981C518.254 334.981 519.3 333.977 519.3 332.739C519.3 331.501 518.254 330.497 516.964 330.497C515.674 330.497 514.628 331.501 514.628 332.739C514.628 333.977 515.674 334.981 516.964 334.981Z" fill="#2F3C49"/>
<path d="M493.164 336.414C494.454 336.414 495.5 335.41 495.5 334.172C495.5 332.934 494.454 331.93 493.164 331.93C491.874 331.93 490.828 332.934 490.828 334.172C490.828 335.41 491.874 336.414 493.164 336.414Z" fill="#2F3C49"/>
<path d="M512.163 314.998C512.74 312.642 514.902 310.778 517.366 310.277C519.831 309.776 522.496 310.576 524.374 312.193C526.252 313.811 527.352 316.167 527.581 318.576C523.577 314.558 517.201 312.897 512.163 314.998Z" fill="#592D46"/>
<path d="M495.499 314.137C493.301 311.605 489.426 310.567 486.183 311.631C482.94 312.695 480.531 315.798 480.402 319.086C483.691 315.737 488.72 314.049 495.499 314.137Z" fill="#592D46"/>
<path d="M498.377 345.038C500.942 346.612 504.112 347.262 507.126 346.832C510.139 346.401 512.979 344.898 514.958 342.673" stroke="#CC5D54" stroke-miterlimit="10" stroke-linecap="round" stroke-linejoin="round"/>
<path d="M502.5 332.22C500.86 332.994 500.072 335.113 500.832 336.704C501.593 338.304 503.782 339.113 505.468 338.418" stroke="#CC5D54" stroke-miterlimit="10" stroke-linecap="round" stroke-linejoin="round"/>
<path d="M505.293 375.544C509.434 373.188 514.051 371.615 518.814 370.947C516.643 369.039 514.325 367.052 511.44 366.437C509.58 368.757 507.986 371.263 505.293 375.544Z" fill="#CF5D72"/>
<path d="M533.664 363.711C531.063 360.124 527.6 357.223 524.449 355.482C519.685 360.053 515.544 361.988 509.434 364.748C508.417 368.792 506.787 372.528 505.019 375.737C507.602 373.575 509.828 370.647 511.33 368.238C514.921 369.636 517.944 372.309 519.694 376.027C526.391 374.832 531.951 369.003 533.664 363.711Z" fill="#FF9CA5"/>
<path d="M505.036 375.676C502.27 373.795 499.274 372.221 496.132 370.999C497.488 369.17 498.99 367.438 500.611 365.821C501.784 368.3 502.819 370.849 503.708 373.443" fill="#CF5D72"/>
<path d="M486.312 370.955C488.07 365.425 492.376 362.445 496.132 359.825C497.14 361.9 499.237 363.597 502.425 364.915C502.838 368.107 503.662 371.5 505.009 375.729C502.993 372.986 501.601 370.313 500.584 367.104C497.524 369.962 494.859 373.329 493.09 377.056C490.434 376.001 488.153 374.067 486.312 370.955Z" fill="#FF9CA5"/>
<path d="M541.103 370.103C546.104 373.725 550.373 378.683 554.917 384.046C556.905 386.393 558.517 389.013 559.653 391.835C563.894 402.367 567.366 413.866 569.602 424.759C570.545 429.356 570.902 434.042 570.692 438.728C570.041 453.568 568.447 467.898 566.331 483.415C558.572 486.184 547.469 489.059 539.252 490.052C540.095 473.894 540.361 460.038 539.371 444.873C539.325 444.126 539.234 443.379 539.106 442.64C537.676 434.658 535.515 426.807 532.711 419.326C531.062 414.921 530.275 410.244 530.439 405.567C530.87 393.488 533.966 381.443 541.103 370.103Z" fill="#F47184"/>
<path d="M190.126 485.736C181.478 488.399 171.273 488.408 162.222 487.599C158.558 461.841 154.903 436.091 151.229 410.332C150.478 404.995 149.718 399.659 148.957 394.323L146.686 384.608C148.289 380.38 149.434 374.173 153.089 370.647C154.857 371.113 156.671 371.632 158.54 372.239C167.334 375.096 174.149 381.883 176.779 390.419C183.887 413.409 188.788 439.396 189.686 464.038C189.75 465.621 189.265 467.159 188.513 468.566C188.184 469.173 187.991 469.858 188.092 470.685C188.202 471.546 188.312 472.39 188.431 473.252C188.981 477.366 189.53 481.498 190.126 485.736Z" fill="#F2C964"/>
<path d="M190.126 485.736C181.478 488.4 171.273 488.409 162.222 487.6C158.558 461.841 154.903 436.091 151.229 410.332C151.404 409.128 151.605 407.923 151.834 406.71C153.355 398.947 156.424 391.308 165.218 385.725C173.078 404.715 176.916 425.234 176.412 445.665C176.302 450.236 175.982 454.843 176.779 459.344C177.576 463.845 179.637 468.338 183.439 471.098C184.895 472.162 186.636 472.901 188.45 473.252C188.981 477.367 189.531 481.499 190.126 485.736Z" fill="#F0BB59"/>
<path d="M159.126 330.84C158.467 348.194 160.674 365.575 165.731 382.806C145.257 380.494 124.636 378.392 103.914 376.529C104.858 366.603 104.684 356.669 103.401 346.752C122.547 341.75 140.86 336.176 159.126 330.84Z" fill="#522230"/>
<path d="M172.482 465.278C172.418 466.86 172.345 468.443 172.253 470.025C172.18 471.256 171.859 472.469 171.301 473.586C170.971 474.236 170.678 475.036 170.495 476.153C170.678 480.399 171.117 485.551 170.943 490.817C145.312 493.498 122.217 490.843 100.021 489.946C93.8833 457.409 90.1732 424.442 89.193 388.327C89.1105 385.716 89.0556 383.069 89.0098 380.414C94.8543 374.006 101.23 368.054 108.87 362.269C121.659 362.603 134.41 364.062 149.965 367.148C154.317 370.023 158.311 373.399 163.496 377.979C170.76 406.252 173.756 435.528 172.482 465.278Z" fill="#F2C964"/>
<path d="M172.483 465.278C172.419 466.878 172.337 468.487 172.245 470.087C172.172 471.3 171.851 472.487 171.292 473.586C170.962 474.236 170.669 475.036 170.486 476.153C170.669 480.399 171.109 485.551 170.935 490.817C145.303 493.498 122.209 490.843 100.013 489.947C93.8749 457.41 90.1648 424.442 89.1846 388.327C91.1633 386.727 93.4168 385.153 95.8169 383.351C103.466 388.186 108.66 389.567 111.161 398.033C114.981 410.956 112.022 420.574 112.196 429.356C112.288 434.051 112.783 439.212 113.745 444.39C115.311 452.838 121.714 459.792 130.316 462.148C143.929 465.867 158.366 466.904 172.483 465.278Z" fill="#F0BB59"/>
<path d="M107.525 483.828C101.085 487.749 89.5604 489.824 83.1845 486.896C81.4989 482.782 80.4546 479.291 79.6485 475.748C78.0178 474.861 76.9002 473.313 76.4422 471.573C74.4818 464.074 72.9062 456.566 71.7336 449.031C69.7915 436.609 69.8648 423.976 71.9718 411.58C72.897 406.156 74.1154 400.802 75.9017 395.589C79.7126 384.459 86.2992 373.891 96.2111 367.052C102.624 375.571 106.755 384.16 109.439 392.573C111.171 398.006 111.61 403.729 110.713 409.347C107.57 429.031 104.877 448.926 106.37 469.164C106.398 469.48 106.343 469.797 106.196 470.078C105.995 470.482 105.72 470.887 105.216 471.37C105.876 475.212 106.535 479.063 107.525 483.828Z" fill="#F2C964"/>
<path d="M105.655 358.472C107.02 354.63 109.539 351.166 113.231 349.126C123.051 349.865 132.817 351.245 142.728 353.865C148.591 355.113 154.72 360.995 155.709 365.742C156.58 369.927 150.891 381.145 147.4 382.692C139.449 386.217 121.567 379.826 111.985 371.43C108.44 368.327 103.64 364.151 105.655 358.472Z" fill="#F8DD6B"/>
<path d="M132.378 366.129C132.854 366.964 133.624 367.65 134.741 368.406C137.929 369.804 142.839 369.769 146.834 368.555C147.548 367.193 148.153 365.663 148.455 364.063C148.757 362.498 148.153 360.872 146.907 359.826C145.524 358.665 143.866 357.716 142.244 356.995C142.079 356.924 141.896 356.845 141.722 356.863C141.465 356.889 141.264 357.091 141.099 357.276C138.424 360.177 135.749 363.07 132.378 366.129Z" fill="#F0BB59"/>
<path d="M141.804 356.784C141.044 359.421 140.274 362.05 139.514 364.687C139.074 366.234 138.616 367.782 138.167 369.338C131.004 368.309 124.225 364.924 119.076 359.966C117.611 358.577 116.282 357.039 115.101 355.395C124.463 355.632 133.12 356.423 141.804 356.784Z" fill="#FCC7A2"/>
<path d="M141.805 356.784C141.044 359.421 140.275 362.05 139.514 364.687C135.713 365.021 127.065 363.887 119.068 359.966C117.602 358.577 116.274 357.039 115.092 355.395C124.463 355.632 133.12 356.423 141.805 356.784Z" fill="#E49175"/>
<path d="M102.047 334.392C100.27 338.559 101.094 343.482 103.513 347.341C105.931 351.201 109.778 354.084 113.947 356.141C125.205 361.68 139.377 361.337 150.324 355.271C154.501 352.959 158.294 349.768 160.428 345.609C162.563 341.46 162.801 336.255 160.126 331.701C164.917 322.593 166.621 313.767 164.01 303.877C159.778 287.824 145.734 281.265 130.161 281.265C113.058 281.265 98.7856 289.133 95.9824 310.444C94.8739 318.901 97.1275 327.64 102.047 334.392Z" fill="#FCC7A2"/>
<path d="M178.254 368.951C178.163 372.889 177.228 377.364 174.746 379.782C174.892 383.175 173.738 386.56 171.686 389.329C169.588 392.177 166.547 394.384 163.047 395.342C165.86 390.586 165.622 384.67 164.275 379.351C162.919 374.032 160.547 368.986 159.292 363.641C156.901 353.434 157.945 340.888 159.356 330.506C160.766 320.132 158.595 307.903 152.732 297.336C156.058 300.668 164.806 307.455 168.608 312C167.655 317.125 165.631 319.816 165.851 325.424C165.896 326.796 166.089 328.334 166.455 330.137C167.829 336.844 172.565 343.992 175.03 350.401C177.292 356.309 178.401 362.638 178.254 368.951Z" fill="#8B3549"/>
<path d="M178.254 368.951C178.162 372.889 177.228 377.364 174.745 379.782C174.892 383.175 173.738 386.56 171.686 389.329C173.646 382.771 173.426 375.606 170.907 369.214C172.62 370.287 173.802 372.107 174.031 374.058C175.891 365.443 171.979 356.757 168.333 348.686C164.669 340.607 161.133 331.675 163.688 323.218C164.229 324.088 164.98 324.835 165.841 325.416C165.887 326.787 166.079 328.326 166.446 330.128C167.82 336.836 172.556 343.983 175.02 350.392C177.292 356.309 178.401 362.638 178.254 368.951Z" fill="#A54653"/>
<path d="M114.936 393.663C114.002 395.835 112.829 397.918 111.427 399.852C112.087 396.476 110.292 393.03 107.791 390.568C105.29 388.116 102.12 386.401 99.207 384.406C96.2939 382.41 93.4999 379.975 91.6036 376.898C86.7576 374.41 84.33 368.792 84.4307 363.526C84.5315 358.251 86.7209 353.231 89.1668 348.502C91.6128 343.772 94.361 339.13 95.7168 334.005C97.384 327.649 96.7519 320.747 93.6923 313.653C98.2543 309.688 102.826 305.723 107.919 301.556C108.963 301.652 109.998 301.758 110.685 303.437C111.391 306.162 111.647 308.905 111.629 311.675C111.51 325.618 104.035 340.053 108.001 353.662C109.843 359.992 114.038 365.495 116.127 371.755C118.5 378.867 117.922 386.753 114.936 393.663Z" fill="#8B3549"/>
<path d="M114.935 393.663C115.109 391.228 114.761 388.723 114.037 386.393C112.471 381.285 109.338 376.784 106.553 372.168C103.768 367.562 101.231 362.595 101.057 357.276C102.092 359.474 104.107 361.241 106.489 362.032C102.916 356.212 101.249 349.346 101.762 342.603C102.522 332.466 108.019 323.13 109.118 313.029C109.924 312.712 110.776 312.237 111.619 311.657C111.5 325.6 104.025 340.036 107.991 353.645C109.833 359.975 114.028 365.478 116.117 371.738C118.499 378.867 117.922 386.753 114.935 393.663Z" fill="#A54653"/>
<path d="M126.268 314.031C124.656 310.998 120.653 309.336 117.245 310.285C113.837 311.235 111.391 314.699 111.721 318.092C113.123 316.097 115.239 314.584 117.63 313.864C120.021 313.143 122.659 313.231 126.268 314.031Z" fill="#8B3549"/>
<path d="M141.685 314.031C143.297 310.998 147.3 309.336 150.708 310.285C154.116 311.235 156.562 314.699 156.232 318.092C154.83 316.097 152.714 314.584 150.323 313.864C147.932 313.143 145.294 313.231 141.685 314.031Z" fill="#8B3549"/>
<path d="M120.176 335.06C121.466 335.06 122.512 334.056 122.512 332.818C122.512 331.58 121.466 330.576 120.176 330.576C118.886 330.576 117.84 331.58 117.84 332.818C117.84 334.056 118.886 335.06 120.176 335.06Z" fill="#2F3C49"/>
<path d="M145.697 335.06C146.987 335.06 148.033 334.056 148.033 332.818C148.033 331.58 146.987 330.576 145.697 330.576C144.407 330.576 143.361 331.58 143.361 332.818C143.361 334.056 144.407 335.06 145.697 335.06Z" fill="#2F3C49"/>
<path d="M133.716 331.982C135.291 332.651 136.281 334.4 135.997 336.035C135.722 337.662 134.201 339.024 132.488 339.174" stroke="#CC5D54" stroke-miterlimit="10" stroke-linecap="round" stroke-linejoin="round"/>
<path d="M139.962 343.535C135.07 346.067 128.575 345.355 124.397 341.838" stroke="#CC5D54" stroke-miterlimit="10" stroke-linecap="round" stroke-linejoin="round"/>
<path d="M170.21 315.279C169.285 319.868 167.774 323.341 165.877 323.341C164.861 313.925 157.111 305.74 147.528 302.11C137.937 298.488 126.843 299.367 117.454 303.428C112.296 305.644 107.542 308.826 103.859 312.932C100.177 317.046 97.5932 322.128 96.8787 327.499C94.3412 327.235 92.5365 325.055 91.3365 321.899C89.0738 315.965 88.9913 306.637 90.4112 300.386C92.2983 292.114 96.613 284.606 101.413 277.467C102.155 276.351 102.925 275.225 103.685 274.127C106.571 269.986 109.786 265.696 114.577 263.762C120.88 261.203 128.071 263.41 134.52 265.634C142.389 268.342 150.414 271.137 156.955 276.131C164.091 281.59 169.084 289.599 170.714 298.241C170.751 298.461 170.797 298.681 170.824 298.909C171.548 303.578 171.255 310.136 170.21 315.279Z" fill="#6CAFD4"/>
<path d="M170.212 315.279C169.287 319.868 167.775 323.341 165.879 323.341C164.862 313.925 157.112 305.741 147.53 302.11C137.939 298.488 126.845 299.367 117.455 303.428C112.298 305.644 107.543 308.826 103.861 312.932C100.178 317.046 97.5947 322.128 96.8801 327.499C94.3426 327.235 92.5379 325.055 91.3379 321.899C92.2998 312.993 96.1748 304.369 102.477 297.758C110.282 289.564 121.77 284.632 133.34 284.826C144.901 285.019 156.324 290.4 163.295 299.261C166.96 303.929 169.323 309.512 170.212 315.279Z" fill="#CAE4EA"/>
<path d="M170.806 298.919C169.176 295.306 166.913 291.93 164.229 288.993C157.432 281.538 148.225 276.483 138.817 272.395C132.331 269.591 125.296 267.12 118.251 268.131C111.656 269.081 106.205 272.879 101.396 277.485C102.138 276.369 102.907 275.244 103.667 274.145C106.553 270.004 109.768 265.714 114.559 263.78C120.862 261.221 128.053 263.428 134.502 265.652C142.371 268.36 150.396 271.156 156.937 276.149C164.073 281.609 169.066 289.617 170.696 298.259C170.742 298.479 170.779 298.699 170.806 298.919Z" fill="#8ACFED"/>
<path d="M59.7239 391.572C59.9804 386.894 61.3454 382.323 63.3333 378.024C64.4967 375.51 67.2724 374.059 70.1122 374.376C73.7857 374.789 77.5416 375.395 81.554 376.459C84.6045 377.268 87.1329 379.325 88.507 382.059C91.1086 387.237 92.9499 392.758 93.9485 398.429C94.0675 399.115 94.1408 399.923 93.637 400.416C93.2064 400.846 92.4736 400.873 91.8965 400.644C91.3193 400.416 90.8704 399.985 90.4399 399.554C87.7741 396.899 85.3374 394.024 83.1113 391.58C82.4701 398.332 86.5191 405.269 92.8492 408.266C93.7836 408.706 94.7729 409.075 95.6066 409.682C96.4402 410.288 97.1181 411.194 97.1181 412.196C97.1181 413.594 95.7806 414.719 94.3607 415.027C92.9408 415.335 91.4659 415.018 89.8353 415.045C86.0977 415.853 82.0578 415.264 78.5035 413.612C77.34 414.016 76.14 414.341 74.9033 414.596C71.4772 415.308 67.9961 413.831 66.283 410.895C62.5638 404.548 59.4491 396.556 59.7239 391.572Z" fill="#F0AC83"/>
<path d="M88.2775 414.288C85.8408 413.462 83.6514 412.055 81.5169 409.576C78.8145 406.297 76.5793 402.701 74.8662 398.895" stroke="#CC5D54" stroke-miterlimit="10" stroke-linecap="round" stroke-linejoin="round"/>
<path d="M76.6434 413.304C72.347 410.684 68.8385 406.877 66.6582 402.464" stroke="#CC5D54" stroke-miterlimit="10" stroke-linecap="round" stroke-linejoin="round"/>
<path d="M550.025 355.913C547.204 355.544 544.327 355.527 541.588 355.861C537.887 356.309 534.663 358.524 533.087 361.768C532.317 363.342 531.575 364.986 530.87 366.771C530.32 368.177 530.146 369.698 530.339 371.184C530.714 374.129 530.586 377.136 529.954 380.046C529.762 380.916 529.542 381.883 530.009 382.657C530.495 383.466 531.621 383.764 532.574 383.545C533.518 383.325 534.305 382.683 534.947 381.989C536.852 379.923 537.851 377.118 537.851 374.604C537.851 373.804 538.263 373.057 538.968 372.643C540.507 371.755 542.449 371.562 544.208 372.503C544.987 376.652 545.765 380.793 546.498 386.411C545.591 389.198 543.164 391.246 540.919 393.215C538.464 395.369 535.954 397.875 535.799 401.154C535.762 401.875 535.973 402.613 536.486 403.141C537.502 404.196 538.767 403.791 539.875 403.387C542.862 402.297 545.271 401.048 548.477 399.448C547.277 402.481 545.307 405.866 544.373 408.908C544.08 409.857 543.86 410.947 544.41 411.783C545.06 412.776 546.581 412.952 547.708 412.477C548.834 412.002 549.485 411.589 550.786 410.947C551.005 412.196 552.114 413.119 553.369 413.506C554.862 413.972 557.061 412.715 557.061 412.715C557.061 412.715 559.442 413.664 561.733 412.723C563.171 412.134 564.188 411.079 564.856 409.725C566.954 405.532 567.944 400.916 567.953 396.266C567.962 391.457 568.044 386.683 567.595 381.892C567.486 380.723 567.302 379.571 567.037 378.428C564.838 369.092 560.276 357.25 550.025 355.913Z" fill="#F0AC83"/>
<path d="M549.127 399.246C549.594 398.877 550.061 398.507 550.529 398.112C552.104 396.784 553.121 394.947 553.387 392.951L553.689 390.709" stroke="#CC5D54" stroke-miterlimit="10" stroke-linecap="round" stroke-linejoin="round"/>
<path d="M550.932 410.059C554.761 406.481 557.225 401.593 557.756 396.494" stroke="#CC5D54" stroke-miterlimit="10" stroke-linecap="round" stroke-linejoin="round"/>
<path d="M557.253 411.817C560.45 407.826 562.383 402.903 562.713 397.874" stroke="#CC5D54" stroke-miterlimit="10" stroke-linecap="round" stroke-linejoin="round"/>
<path fill-rule="evenodd" clip-rule="evenodd" d="M640.798 139.114C634.658 256.057 642.919 373.345 637.739 490.394C637.324 499.797 641.191 518.087 633.169 526.485C627.479 532.443 593.625 529.713 583.95 529.617C534.08 529.127 484.324 527.37 434.432 528.012C341.143 529.215 247.963 528.679 154.748 530.412C132.281 530.828 109.788 530.697 87.3254 530.164C65.5961 529.644 41.9813 532.254 20.5487 530.199C5.41797 528.748 9.64694 465.983 8.68682 456.698C5.96792 430.45 1.11051 404.093 0.119832 377.8C-0.971219 348.692 5.79331 319.691 5.00339 290.788C3.37118 233.134 6.59196 175.397 2.63363 117.77C0.748295 90.304 0.65229 62.7607 4.19602 35.3401C5.03831 28.8082 1.79569 8.36748 10.8427 3.87781C20.8018 -1.05977 61.2885 3.59247 74.1542 3.77643C209.353 5.68267 344.242 -2.09163 479.624 0.555788C513.372 1.21431 547.147 1.50221 580.908 1.21694C595.664 1.0943 610.401 1.69151 625.126 2.16074C640.528 2.6513 634.749 15.4378 635.386 22.0523C636.281 31.3649 650.094 139.36 640.798 139.114C639.96 155.066 640.894 139.117 640.798 139.114ZM627.692 164.122C626.728 139.314 629.499 114.533 628.43 89.76C627.889 77.2668 624.502 64.9096 624.005 52.419C623.494 39.5418 627.243 25.441 622.386 12.7718C618.074 1.51832 529.122 8.06353 512.037 7.98888C465.27 7.78092 418.451 6.5651 371.679 6.93035C277.216 7.68752 182.007 11.8653 87.6178 10.5962C68.8081 10.3429 39.1009 5.95466 21.3343 9.95377C12.5884 11.9213 18.3709 34.2764 18.4059 39.2752C18.6066 69.3593 22.8225 99.3127 21.9933 129.439C20.4265 186.36 25.2577 243.745 19.798 300.553C14.2555 358.207 27.5008 414.683 26.2003 472.153C25.9341 483.046 26.2265 493.004 26.0258 503.903C25.7726 517.743 21.6964 523.259 46.5069 522.752C97.2321 521.72 148.01 520.873 198.757 520.454C293.508 519.67 388.403 519.076 483.268 518.284C514.092 518.023 544.934 517.881 575.741 518.66C588.799 518.996 601.852 519.401 614.914 519.716C630.944 520.105 625.266 512.653 623.381 506.361C611.946 468.292 626.418 426.19 622.298 387.43C614.408 313.164 623.162 238.367 627.692 164.122C626.44 184.691 627.199 151.357 627.692 164.122Z" fill="#A06A51"/>
<path fill-rule="evenodd" clip-rule="evenodd" d="M618.31 153.498C615.325 210.203 611.733 266.633 610.345 323.322C609.669 350.862 612.248 377.936 614.041 405.429C615.992 435.339 611.68 465.069 611.999 494.953C612.047 499.57 615.726 511.672 604.126 512.698C585.006 514.397 563.892 512.461 544.555 512.64C496.867 513.08 449.249 512.933 401.553 513.226C306.012 513.805 210.431 514.282 114.908 515.676C94.2081 515.975 73.1247 517.031 52.4383 516.415C31.4116 515.794 37.2335 504.801 36.9411 494.798C36.1424 467.735 38.0539 440.365 32.0444 413.478C19.0696 355.493 33.4628 296.871 28.8978 238.687C26.7201 210.941 30.1896 182.225 30.7875 154.399C31.4596 123.051 29.3211 92.0207 28.3828 60.6917C27.9857 47.4413 27.0255 34.1482 29.2775 20.9378C31.0013 10.836 63.2572 15.3336 74.5038 15.9761C121.65 18.6395 170.926 15.3976 218.173 14.4351C327.152 12.217 435.655 13.4941 544.62 13.806C557.019 13.8407 606.033 9.30307 612.933 16.8321C621.984 26.7072 615.421 47.8279 616.368 58.7881C617.044 66.6797 619.842 153.538 618.31 153.498C617.48 169.206 617.913 153.487 618.31 153.498ZM224.288 504.391C265.599 508.254 308.495 503.73 350.046 503.708C402.548 503.682 454.879 501.103 507.241 498.968C531.606 497.976 555.976 496.968 580.341 495.982C598.413 495.249 591.666 483.041 591.426 474.68C590.536 444.036 592.002 413.488 593.861 382.868C600.875 267.206 594.913 151.698 590.571 36.0091C589.999 20.7725 580.581 22.8414 558.105 22.6174C536.49 22.3988 515.262 22.8227 493.694 23.5825C443.061 25.3635 391.685 23.9664 340.93 24.5636C247.457 25.6647 154.657 25.0142 61.1799 28.6774C29.2252 29.9225 45.1152 71.18 46.3328 84.5184C48.9862 113.648 47.1489 142.748 49.7936 171.832C55.0525 229.705 42.1475 287.084 46.9132 344.73C50.7799 391.493 53.4072 439.216 54.3586 486.016C54.4459 490.405 48.3709 503.77 58.8973 505.321C73.7225 507.51 90.8084 505.761 105.834 505.382C145.291 504.396 184.8 504.37 224.288 504.391C257.456 507.492 173.165 504.367 224.288 504.391Z" fill="#D0B36F"/>
<path fill-rule="evenodd" clip-rule="evenodd" d="M228.127 499.851C182.216 498.846 136.226 499.219 90.3753 500.982C83.5758 501.254 69.8897 502.933 65.8397 498.148C57.8445 488.699 59.0971 471.066 59.1276 460.729C59.2978 405.131 47.1697 348.066 55.7846 292.748C64.8622 234.443 59.0927 175.39 56.8669 116.955C55.885 91.1711 49.33 64.4863 51.9747 38.756C53.1748 27.0626 150.099 31.1496 165.693 30.6004C259.51 27.3105 354.095 29.2755 448.105 29.0275C470.864 28.9689 493.623 28.665 516.352 27.9025C533.744 27.3159 559.571 24.8764 576.177 28.8781C588.584 31.8668 581.92 55.5736 582.068 61.7936C582.457 77.934 584.626 93.9945 585.743 110.114C593.756 225.52 586.162 340.529 583.836 455.933C583.657 465.187 583.914 474.462 582.396 483.684C581.03 492.053 571.507 491.307 559.3 492.245C522.907 495.036 485.777 495.618 449.187 497.201C376.087 500.374 301.341 501.79 228.127 499.851C256.756 500.609 182.159 498.846 228.127 499.851ZM79.5215 413.604C78.8669 427.006 77.9897 440.353 78.2385 453.771C78.3912 461.737 73.0799 479.469 80.3507 486.316C85.6139 491.272 117.42 488.358 125.939 488.971C153.586 490.979 181.482 491.291 209.296 491.011C308.516 490.013 407.692 489.318 506.921 488.848C523.937 488.771 552.457 490.96 568.077 486.254C574.073 484.447 567.549 461.537 567.601 457.754C567.998 428.667 568.971 399.81 567.771 370.701C565.423 313.805 563.25 258.091 566.174 201.131C567.649 172.385 562.198 143.551 562.085 114.782C562.05 105.776 573.759 40.9716 559.667 39.1426C540.718 36.6792 515.313 40.1798 495.622 39.8839C472.104 39.5346 448.607 39.0786 425.079 39.0359C374.917 38.9452 324.768 39.6465 274.606 39.0759C231.278 38.5827 188.059 40.7795 144.74 40.6809C125.084 40.6356 102.791 39.1293 83.4406 41.4354C64.2337 43.7229 71.4826 59.1995 72.4297 67.4137C79.1156 125.569 73.3156 184.289 75.5457 242.588C77.7191 299.461 82.8645 356.806 79.5215 413.604C79.4168 415.742 80.5995 395.269 79.5215 413.604Z" fill="#DBCBBE"/>
</svg>
